# xmcd
#
# Track frame offsets: 
#        150
#        28922
#        46761
#        63941
#        80041
#        91304
#        107845
#        124695
#        139224
#        154151
#
# Disc length: 2329 seconds
#
# Revision: 1
# Processed by: cddbd v1.5.2PL0 Copyright (c) Steve Scherf et al.
# Submitted via: ExactAudioCopy v1.3
#
DISCID=8309170a
DTITLE=David Bazan - Curse Your Branches
DYEAR=2009
DGENRE=Folk
TTITLE0=Hard To Be
TTITLE1=Bless This Mess
TTITLE2=Please, Baby, Please
TTITLE3=Curse Your Branches
TTITLE4=Harmless Sparks
TTITLE5=When We Fell
TTITLE6=Lost My Shape
TTITLE7=Bearing Witness
TTITLE8=Heavy Breath
TTITLE9=In Stitches
EXTD=
EXTT0=
EXTT1=
EXTT2=
EXTT3=
EXTT4=
EXTT5=
EXTT6=
EXTT7=
EXTT8=
EXTT9=
PLAYORDER=
